<?xml version="1.0" encoding="UTF-8"?>
<svg id="Layer_1" xmlns="http://www.w3.org/2000/svg" xmlns:xlink="http://www.w3.org/1999/xlink" version="1.1" viewBox="0 0 56 56">
  <!-- Generator: Adobe Illustrator 29.3.1, SVG Export Plug-In . SVG Version: 2.1.0 Build 151)  -->
  <defs>
    <style>
      .st0 {
        fill: #fff;
      }
    </style>
  </defs>
  <path id="_xF8FF_" class="st0" d="M28.5,15.4c2,0,4.6-1.4,6.1-3.3,1.4-1.7,2.4-4.1,2.4-6.5s0-.7,0-.9c-2.3,0-5,1.6-6.6,3.6-1.3,1.5-2.5,3.9-2.5,6.3s0,.7,0,.8c.1,0,.4,0,.6,0ZM21.4,51.3c2.8,0,4-1.9,7.5-1.9s4.3,1.9,7.4,1.9,5.1-2.9,7-5.8c2.2-3.3,3.1-6.5,3.1-6.6-.2,0-6-2.5-6-9.4s4.6-8.7,4.9-8.9c-3.1-4.5-7.7-4.6-9-4.6-3.4,0-6.2,2.1-8,2.1s-4.4-2-7.4-2c-5.6,0-11.4,4.8-11.4,13.9s2.1,11.6,4.7,15.5c2.2,3.3,4.2,5.9,7,5.9Z"/>
</svg>